<?xml version="1.0" standalone="no"?><svg xmlns="http://www.w3.org/2000/svg" viewBox="0 0 1440 320"><path fill="#ff9900" fill-opacity="1" d="M0,128L12.6,144C25.3,160,51,192,76,186.7C101.1,181,126,139,152,133.3C176.8,128,202,160,227,170.7C252.6,181,278,171,303,176C328.4,181,354,203,379,213.3C404.2,224,429,224,455,234.7C480,245,505,267,531,234.7C555.8,203,581,117,606,101.3C631.6,85,657,139,682,133.3C707.4,128,733,64,758,69.3C783.2,75,808,149,834,192C858.9,235,884,245,909,224C934.7,203,960,149,985,133.3C1010.5,117,1036,139,1061,122.7C1086.3,107,1112,53,1137,74.7C1162.1,96,1187,192,1213,218.7C1237.9,245,1263,203,1288,202.7C1313.7,203,1339,245,1364,224C1389.5,203,1415,117,1427,74.7L1440,32L1440,320L1427.4,320C1414.7,320,1389,320,1364,320C1338.9,320,1314,320,1288,320C1263.2,320,1238,320,1213,320C1187.4,320,1162,320,1137,320C1111.6,320,1086,320,1061,320C1035.8,320,1011,320,985,320C960,320,935,320,909,320C884.2,320,859,320,834,320C808.4,320,783,320,758,320C732.6,320,707,320,682,320C656.8,320,632,320,606,320C581.1,320,556,320,531,320C505.3,320,480,320,455,320C429.5,320,404,320,379,320C353.7,320,328,320,303,320C277.9,320,253,320,227,320C202.1,320,177,320,152,320C126.3,320,101,320,76,320C50.5,320,25,320,13,320L0,320Z"></path></svg>