<svg width="511" height="484" viewBox="0 0 511 484" fill="none" xmlns="http://www.w3.org/2000/svg">
<g filter="url(#filter0_d_421_66)">
<mask id="path-1-inside-1_421_66" fill="white">
<path d="M375.197 6.69094C422.855 34.2066 460.103 76.6786 481.164 127.52C502.225 178.362 505.922 234.733 491.682 287.889C477.441 341.046 446.059 388.019 402.403 421.524C358.746 455.028 305.254 473.192 250.223 473.197C195.191 473.203 141.696 455.051 98.0322 421.555C54.3686 388.06 22.9769 341.094 8.72545 287.94C-5.526 234.786 -1.84081 178.415 19.2095 127.568C40.2598 76.7223 77.4989 34.2425 125.152 6.71696L200.179 136.605C181.118 147.615 166.222 164.607 157.802 184.946C149.382 205.284 147.908 227.833 153.608 249.094C159.309 270.356 171.866 289.142 189.331 302.541C206.796 315.939 228.195 323.2 250.207 323.197C272.22 323.195 293.616 315.93 311.079 302.528C328.542 289.126 341.095 270.337 346.791 249.074C352.487 227.811 351.008 205.263 342.584 184.927C334.159 164.59 319.26 147.601 300.197 136.595L375.197 6.69094Z"/>
</mask>
<path d="M375.197 6.69094C422.855 34.2066 460.103 76.6786 481.164 127.52C502.225 178.362 505.922 234.733 491.682 287.889C477.441 341.046 446.059 388.019 402.403 421.524C358.746 455.028 305.254 473.192 250.223 473.197C195.191 473.203 141.696 455.051 98.0322 421.555C54.3686 388.06 22.9769 341.094 8.72545 287.94C-5.526 234.786 -1.84081 178.415 19.2095 127.568C40.2598 76.7223 77.4989 34.2425 125.152 6.71696L200.179 136.605C181.118 147.615 166.222 164.607 157.802 184.946C149.382 205.284 147.908 227.833 153.608 249.094C159.309 270.356 171.866 289.142 189.331 302.541C206.796 315.939 228.195 323.2 250.207 323.197C272.22 323.195 293.616 315.93 311.079 302.528C328.542 289.126 341.095 270.337 346.791 249.074C352.487 227.811 351.008 205.263 342.584 184.927C334.159 164.59 319.26 147.601 300.197 136.595L375.197 6.69094Z" fill="#FF9900"/>
<path d="M375.197 6.69094C422.855 34.2066 460.103 76.6786 481.164 127.52C502.225 178.362 505.922 234.733 491.682 287.889C477.441 341.046 446.059 388.019 402.403 421.524C358.746 455.028 305.254 473.192 250.223 473.197C195.191 473.203 141.696 455.051 98.0322 421.555C54.3686 388.06 22.9769 341.094 8.72545 287.94C-5.526 234.786 -1.84081 178.415 19.2095 127.568C40.2598 76.7223 77.4989 34.2425 125.152 6.71696L200.179 136.605C181.118 147.615 166.222 164.607 157.802 184.946C149.382 205.284 147.908 227.833 153.608 249.094C159.309 270.356 171.866 289.142 189.331 302.541C206.796 315.939 228.195 323.2 250.207 323.197C272.22 323.195 293.616 315.93 311.079 302.528C328.542 289.126 341.095 270.337 346.791 249.074C352.487 227.811 351.008 205.263 342.584 184.927C334.159 164.59 319.26 147.601 300.197 136.595L375.197 6.69094Z" stroke="#FF9900" stroke-width="100" stroke-miterlimit="2.3662" stroke-linecap="square" stroke-linejoin="round" mask="url(#path-1-inside-1_421_66)"/>
</g>
<defs>
<filter id="filter0_d_421_66" x="-9.80328" y="0.690937" width="520" height="486.506" filterUnits="userSpaceOnUse" color-interpolation-filters="sRGB">
<feFlood flood-opacity="0" result="BackgroundImageFix"/>
<feColorMatrix in="SourceAlpha" type="matrix" values="0 0 0 0 0 0 0 0 0 0 0 0 0 0 0 0 0 0 127 0" result="hardAlpha"/>
<feOffset dy="4"/>
<feGaussianBlur stdDeviation="5"/>
<feComposite in2="hardAlpha" operator="out"/>
<feColorMatrix type="matrix" values="0 0 0 0 0 0 0 0 0 0 0 0 0 0 0 0 0 0 0.5 0"/>
<feBlend mode="normal" in2="BackgroundImageFix" result="effect1_dropShadow_421_66"/>
<feBlend mode="normal" in="SourceGraphic" in2="effect1_dropShadow_421_66" result="shape"/>
</filter>
</defs>
</svg>
